<?xml version="1.0" encoding="UTF-8"?>
<svg xmlns="http://www.w3.org/2000/svg" width="1000" height="600" viewBox="0 0 1000 600" role="img" aria-labelledby="title desc">
  <title id="title">World3 browser-native simulation plot</title>
  <desc id="desc">Normalized key simulation variables from 1900 to 2100.</desc>
  <rect width="1000" height="600" fill="#ffffff" />
  <text x="72" y="28" font-size="24" font-weight="700" fill="#111827">World3 Simulation — Key Variables</text>
  <text x="72" y="48" font-size="14" fill="#4b5563">1900-2100 • dt 0.50</text>
  <rect x="72" y="48" width="648" height="504" fill="#f8fafc" stroke="#cbd5e1" />
  <line x1="72" y1="48" x2="720" y2="48" stroke="#e5e7eb" stroke-width="1" /><text x="18" y="52" font-size="12" fill="#6b7280">1.00</text><line x1="72" y1="174" x2="720" y2="174" stroke="#e5e7eb" stroke-width="1" /><text x="18" y="178" font-size="12" fill="#6b7280">0.75</text><line x1="72" y1="300" x2="720" y2="300" stroke="#e5e7eb" stroke-width="1" /><text x="18" y="304" font-size="12" fill="#6b7280">0.50</text><line x1="72" y1="426" x2="720" y2="426" stroke="#e5e7eb" stroke-width="1" /><text x="18" y="430" font-size="12" fill="#6b7280">0.25</text><line x1="72" y1="552" x2="720" y2="552" stroke="#e5e7eb" stroke-width="1" /><text x="18" y="556" font-size="12" fill="#6b7280">0.00</text>
  <line x1="72" y1="48" x2="72" y2="552" stroke="#e5e7eb" stroke-width="1" /><text x="72" y="584" text-anchor="middle" font-size="12" fill="#6b7280">1900</text><line x1="234" y1="48" x2="234" y2="552" stroke="#e5e7eb" stroke-width="1" /><text x="234" y="584" text-anchor="middle" font-size="12" fill="#6b7280">1950</text><line x1="396" y1="48" x2="396" y2="552" stroke="#e5e7eb" stroke-width="1" /><text x="396" y="584" text-anchor="middle" font-size="12" fill="#6b7280">2000</text><line x1="558" y1="48" x2="558" y2="552" stroke="#e5e7eb" stroke-width="1" /><text x="558" y="584" text-anchor="middle" font-size="12" fill="#6b7280">2050</text><line x1="720" y1="48" x2="720" y2="552" stroke="#e5e7eb" stroke-width="1" /><text x="720" y="584" text-anchor="middle" font-size="12" fill="#6b7280">2100</text>
  <line x1="72" y1="552" x2="960" y2="552" stroke="#64748b" stroke-width="1.5" />
  <line x1="72" y1="48" x2="72" y2="552" stroke="#64748b" stroke-width="1.5" />
  <path d="M 72.00 552.00 L 73.62 551.59 L 75.24 551.14 L 76.86 550.67 L 78.48 550.17 L 80.10 549.65 L 81.72 549.11 L 83.34 548.57 L 84.96 548.01 L 86.58 547.45 L 88.20 546.89 L 89.82 546.33 L 91.44 545.77 L 93.06 545.21 L 94.68 544.65 L 96.30 544.10 L 97.92 543.54 L 99.54 542.98 L 101.16 542.43 L 102.78 541.87 L 104.40 541.31 L 106.02 540.75 L 107.64 540.19 L 109.26 539.63 L 110.88 539.07 L 112.50 538.51 L 114.12 537.95 L 115.74 537.38 L 117.36 536.82 L 118.98 536.25 L 120.60 535.68 L 122.22 535.10 L 123.84 534.53 L 125.46 533.95 L 127.08 533.37 L 128.70 532.78 L 130.32 532.19 L 131.94 531.60 L 133.56 531.00 L 135.18 530.40 L 136.80 529.79 L 138.42 529.19 L 140.04 528.57 L 141.66 527.96 L 143.28 527.33 L 144.90 526.71 L 146.52 526.08 L 148.14 525.44 L 149.76 524.80 L 151.38 524.15 L 153.00 523.50 L 154.62 522.84 L 156.24 522.18 L 157.86 521.50 L 159.48 520.83 L 161.10 520.14 L 162.72 519.45 L 164.34 518.76 L 165.96 518.05 L 167.58 517.34 L 169.20 516.62 L 170.82 515.90 L 172.44 515.16 L 174.06 514.42 L 175.68 513.67 L 177.30 512.91 L 178.92 512.14 L 180.54 511.37 L 182.16 510.58 L 183.78 509.79 L 185.40 508.98 L 187.02 508.17 L 188.64 507.35 L 190.26 506.52 L 191.88 505.67 L 193.50 504.82 L 195.12 503.96 L 196.74 503.09 L 198.36 502.20 L 199.98 501.30 L 201.60 500.40 L 203.22 499.48 L 204.84 497.79 L 206.46 496.11 L 208.08 494.45 L 209.70 492.78 L 211.32 491.12 L 212.94 489.45 L 214.56 487.78 L 216.18 486.10 L 217.80 484.42 L 219.42 482.72 L 221.04 481.02 L 222.66 479.30 L 224.28 477.57 L 225.90 475.84 L 227.52 474.08 L 229.14 472.32 L 230.76 470.54 L 232.38 468.75 L 234.00 466.95 L 235.62 465.13 L 237.24 463.30 L 238.86 461.46 L 240.48 459.60 L 242.10 457.72 L 243.72 455.84 L 245.34 453.93 L 246.96 452.01 L 248.58 450.08 L 250.20 448.12 L 251.82 446.16 L 253.44 444.17 L 255.06 442.16 L 256.68 440.14 L 258.30 438.10 L 259.92 436.04 L 261.54 433.96 L 263.16 431.86 L 264.78 429.75 L 266.40 427.61 L 268.02 425.46 L 269.64 423.29 L 271.26 421.09 L 272.88 418.88 L 274.50 416.65 L 276.12 414.40 L 277.74 412.14 L 279.36 409.85 L 280.98 407.53 L 282.60 405.19 L 284.22 402.82 L 285.84 400.43 L 287.46 398.03 L 289.08 395.61 L 290.70 393.17 L 292.32 390.71 L 293.94 388.23 L 295.56 385.73 L 297.18 383.21 L 298.80 380.67 L 300.42 378.10 L 302.04 375.52 L 303.66 372.91 L 305.28 370.28 L 306.90 367.63 L 308.52 364.96 L 310.14 362.28 L 311.76 359.58 L 313.38 356.86 L 315.00 354.12 L 316.62 351.37 L 318.24 348.60 L 319.86 345.81 L 321.48 343.00 L 323.10 340.18 L 324.72 337.33 L 326.34 334.47 L 327.96 331.59 L 329.58 328.69 L 331.20 325.77 L 332.82 322.84 L 334.44 319.90 L 336.06 316.95 L 337.68 313.98 L 339.30 311.00 L 340.92 308.01 L 342.54 305.02 L 344.16 302.01 L 345.78 298.99 L 347.40 295.98 L 349.02 292.96 L 350.64 289.94 L 352.26 286.93 L 353.88 283.91 L 355.50 280.90 L 357.12 277.90 L 358.74 274.90 L 360.36 271.91 L 361.98 268.93 L 363.60 265.95 L 365.22 262.99 L 366.84 260.04 L 368.46 257.08 L 370.08 254.13 L 371.70 251.19 L 373.32 248.25 L 374.94 245.31 L 376.56 242.38 L 378.18 239.46 L 379.80 236.54 L 381.42 233.64 L 383.04 230.75 L 384.66 227.87 L 386.28 225.00 L 387.90 222.12 L 389.52 219.24 L 391.14 216.35 L 392.76 213.45 L 394.38 210.55 L 396.00 207.64 L 397.62 204.73 L 399.24 201.82 L 400.86 198.92 L 402.48 196.04 L 404.10 193.18 L 405.72 190.33 L 407.34 187.50 L 408.96 184.68 L 410.58 181.88 L 412.20 179.10 L 413.82 176.33 L 415.44 173.57 L 417.06 170.82 L 418.68 168.05 L 420.30 165.29 L 421.92 162.52 L 423.54 159.74 L 425.16 156.96 L 426.78 154.18 L 428.40 151.39 L 430.02 148.59 L 431.64 145.79 L 433.26 142.99 L 434.88 140.18 L 436.50 137.36 L 438.12 134.56 L 439.74 131.77 L 441.36 129.00 L 442.98 126.24 L 444.60 123.51 L 446.22 120.81 L 447.84 118.13 L 449.46 115.49 L 451.08 112.87 L 452.70 110.29 L 454.32 107.73 L 455.94 105.20 L 457.56 102.71 L 459.18 100.24 L 460.80 97.81 L 462.42 95.40 L 464.04 93.03 L 465.66 90.69 L 467.28 88.38 L 468.90 86.10 L 470.52 83.86 L 472.14 81.64 L 473.76 79.46 L 475.38 77.32 L 477.00 75.20 L 478.62 73.12 L 480.24 71.11 L 481.86 69.19 L 483.48 67.34 L 485.10 65.56 L 486.72 63.84 L 488.34 62.19 L 489.96 60.58 L 491.58 59.04 L 493.20 57.55 L 494.82 56.17 L 496.44 54.86 L 498.06 53.63 L 499.68 52.46 L 501.30 51.35 L 502.92 50.30 L 504.54 49.31 L 506.16 48.42 L 507.78 48.00 L 509.40 48.28 L 511.02 48.92 L 512.64 49.80 L 514.26 50.93 L 515.88 52.39 L 517.50 54.14 L 519.12 56.21 L 520.74 58.66 L 522.36 61.48 L 523.98 64.68 L 525.60 68.24 L 527.22 72.12 L 528.84 76.30 L 530.46 80.90 L 532.08 85.89 L 533.70 91.81 L 535.32 98.56 L 536.94 106.09 L 538.56 114.26 L 540.18 122.92 L 541.80 132.03 L 543.42 141.66 L 545.04 151.67 L 546.66 161.96 L 548.28 172.41 L 549.90 182.96 L 551.52 193.56 L 553.14 204.18 L 554.76 214.73 L 556.38 224.95 L 558.00 234.85 L 559.62 244.43 L 561.24 253.72 L 562.86 262.72 L 564.48 271.45 L 566.10 279.92 L 567.72 288.12 L 569.34 296.09 L 570.96 303.81 L 572.58 311.31 L 574.20 318.59 L 575.82 325.64 L 577.44 332.47 L 579.06 339.10 L 580.68 345.52 L 582.30 351.76 L 583.92 357.81 L 585.54 363.68 L 587.16 369.37 L 588.78 374.88 L 590.40 380.24 L 592.02 385.44 L 593.64 390.48 L 595.26 395.38 L 596.88 400.14 L 598.50 404.73 L 600.12 409.07 L 601.74 413.18 L 603.36 417.06 L 604.98 420.73 L 606.60 424.18 L 608.22 427.44 L 609.84 430.49 L 611.46 433.36 L 613.08 436.05 L 614.70 438.56 L 616.32 440.89 L 617.94 443.06 L 619.56 445.07 L 621.18 446.92 L 622.80 448.62 L 624.42 450.21 L 626.04 451.68 L 627.66 453.04 L 629.28 454.30 L 630.90 455.46 L 632.52 456.53 L 634.14 457.50 L 635.76 458.39 L 637.38 459.19 L 639.00 459.91 L 640.62 460.55 L 642.24 461.12 L 643.86 461.62 L 645.48 462.05 L 647.10 462.43 L 648.72 462.77 L 650.34 463.06 L 651.96 463.32 L 653.58 463.54 L 655.20 463.74 L 656.82 463.91 L 658.44 464.05 L 660.06 464.16 L 661.68 464.26 L 663.30 464.34 L 664.92 464.40 L 666.54 464.47 L 668.16 464.55 L 669.78 464.63 L 671.40 464.72 L 673.02 464.81 L 674.64 464.91 L 676.26 465.00 L 677.88 465.09 L 679.50 465.18 L 681.12 465.27 L 682.74 465.36 L 684.36 465.45 L 685.98 465.55 L 687.60 465.65 L 689.22 465.75 L 690.84 465.84 L 692.46 465.94 L 694.08 466.03 L 695.70 466.12 L 697.32 466.21 L 698.94 466.30 L 700.56 466.39 L 702.18 466.49 L 703.80 466.58 L 705.42 466.67 L 707.04 466.77 L 708.66 466.87 L 710.28 466.96 L 711.90 467.07 L 713.52 467.18 L 715.14 467.29 L 716.76 467.42 L 718.38 467.56 L 720.00 467.71" fill="none" stroke="#2196F3" stroke-width="3" stroke-linejoin="round" stroke-linecap="round" />
  <path d="M 72.00 48.00 L 73.62 48.07 L 75.24 48.14 L 76.86 48.22 L 78.48 48.29 L 80.10 48.37 L 81.72 48.45 L 83.34 48.53 L 84.96 48.61 L 86.58 48.69 L 88.20 48.78 L 89.82 48.86 L 91.44 48.95 L 93.06 49.04 L 94.68 49.13 L 96.30 49.22 L 97.92 49.32 L 99.54 49.41 L 101.16 49.51 L 102.78 49.61 L 104.40 49.71 L 106.02 49.81 L 107.64 49.92 L 109.26 50.02 L 110.88 50.13 L 112.50 50.24 L 114.12 50.35 L 115.74 50.46 L 117.36 50.58 L 118.98 50.70 L 120.60 50.82 L 122.22 50.94 L 123.84 51.06 L 125.46 51.19 L 127.08 51.31 L 128.70 51.44 L 130.32 51.57 L 131.94 51.71 L 133.56 51.85 L 135.18 51.98 L 136.80 52.13 L 138.42 52.27 L 140.04 52.41 L 141.66 52.56 L 143.28 52.71 L 144.90 52.87 L 146.52 53.02 L 148.14 53.18 L 149.76 53.35 L 151.38 53.51 L 153.00 53.68 L 154.62 53.85 L 156.24 54.02 L 157.86 54.20 L 159.48 54.38 L 161.10 54.56 L 162.72 54.75 L 164.34 54.94 L 165.96 55.13 L 167.58 55.32 L 169.20 55.52 L 170.82 55.73 L 172.44 55.93 L 174.06 56.14 L 175.68 56.36 L 177.30 56.57 L 178.92 56.80 L 180.54 57.02 L 182.16 57.25 L 183.78 57.48 L 185.40 57.72 L 187.02 57.96 L 188.64 58.21 L 190.26 58.46 L 191.88 58.72 L 193.50 58.98 L 195.12 59.24 L 196.74 59.51 L 198.36 59.78 L 199.98 60.06 L 201.60 60.35 L 203.22 60.63 L 204.84 60.93 L 206.46 61.23 L 208.08 61.53 L 209.70 61.84 L 211.32 62.16 L 212.94 62.48 L 214.56 62.81 L 216.18 63.14 L 217.80 63.48 L 219.42 63.82 L 221.04 64.17 L 222.66 64.53 L 224.28 64.89 L 225.90 65.26 L 227.52 65.64 L 229.14 66.02 L 230.76 66.41 L 232.38 66.81 L 234.00 67.21 L 235.62 67.62 L 237.24 68.04 L 238.86 68.46 L 240.48 68.89 L 242.10 69.33 L 243.72 69.78 L 245.34 70.23 L 246.96 70.70 L 248.58 71.17 L 250.20 71.65 L 251.82 72.13 L 253.44 72.63 L 255.06 73.13 L 256.68 73.64 L 258.30 74.17 L 259.92 74.70 L 261.54 75.24 L 263.16 75.79 L 264.78 76.34 L 266.40 76.91 L 268.02 77.49 L 269.64 78.08 L 271.26 78.68 L 272.88 79.29 L 274.50 79.90 L 276.12 80.53 L 277.74 81.17 L 279.36 81.83 L 280.98 82.49 L 282.60 83.16 L 284.22 83.85 L 285.84 84.55 L 287.46 85.26 L 289.08 85.98 L 290.70 86.71 L 292.32 87.46 L 293.94 88.21 L 295.56 88.99 L 297.18 89.77 L 298.80 90.57 L 300.42 91.38 L 302.04 92.20 L 303.66 93.04 L 305.28 93.90 L 306.90 94.77 L 308.52 95.67 L 310.14 96.59 L 311.76 97.53 L 313.38 98.49 L 315.00 99.48 L 316.62 100.49 L 318.24 101.53 L 319.86 102.59 L 321.48 103.67 L 323.10 104.78 L 324.72 105.91 L 326.34 107.07 L 327.96 108.26 L 329.58 109.47 L 331.20 110.71 L 332.82 111.98 L 334.44 113.27 L 336.06 114.59 L 337.68 115.95 L 339.30 117.33 L 340.92 118.74 L 342.54 120.18 L 344.16 121.65 L 345.78 123.16 L 347.40 124.69 L 349.02 126.26 L 350.64 127.86 L 352.26 129.49 L 353.88 131.16 L 355.50 132.86 L 357.12 134.60 L 358.74 136.37 L 360.36 138.18 L 361.98 140.03 L 363.60 141.91 L 365.22 143.84 L 366.84 145.80 L 368.46 147.80 L 370.08 149.84 L 371.70 151.92 L 373.32 154.04 L 374.94 156.20 L 376.56 158.41 L 378.18 160.66 L 379.80 162.95 L 381.42 165.29 L 383.04 167.68 L 384.66 170.11 L 386.28 172.58 L 387.90 175.11 L 389.52 177.68 L 391.14 180.30 L 392.76 182.96 L 394.38 185.68 L 396.00 188.44 L 397.62 191.26 L 399.24 194.12 L 400.86 197.04 L 402.48 200.01 L 404.10 203.02 L 405.72 206.10 L 407.34 209.22 L 408.96 212.40 L 410.58 215.63 L 412.20 218.91 L 413.82 222.25 L 415.44 225.65 L 417.06 229.10 L 418.68 232.61 L 420.30 236.18 L 421.92 239.80 L 423.54 243.48 L 425.16 247.22 L 426.78 251.02 L 428.40 254.88 L 430.02 258.80 L 431.64 262.78 L 433.26 266.82 L 434.88 270.92 L 436.50 275.09 L 438.12 279.31 L 439.74 283.60 L 441.36 287.95 L 442.98 292.36 L 444.60 296.83 L 446.22 301.37 L 447.84 305.97 L 449.46 310.64 L 451.08 315.37 L 452.70 320.16 L 454.32 325.02 L 455.94 329.95 L 457.56 334.94 L 459.18 340.00 L 460.80 345.13 L 462.42 350.32 L 464.04 355.59 L 465.66 360.92 L 467.28 366.32 L 468.90 371.79 L 470.52 377.33 L 472.14 382.94 L 473.76 388.62 L 475.38 394.36 L 477.00 400.18 L 478.62 406.07 L 480.24 412.00 L 481.86 417.95 L 483.48 423.92 L 485.10 429.91 L 486.72 435.91 L 488.34 441.94 L 489.96 447.97 L 491.58 454.02 L 493.20 460.07 L 494.82 466.07 L 496.44 472.02 L 498.06 477.91 L 499.68 483.75 L 501.30 489.53 L 502.92 495.25 L 504.54 500.90 L 506.16 506.48 L 507.78 511.58 L 509.40 515.95 L 511.02 519.68 L 512.64 522.86 L 514.26 525.56 L 515.88 527.86 L 517.50 529.80 L 519.12 531.49 L 520.74 533.05 L 522.36 534.49 L 523.98 535.81 L 525.60 537.02 L 527.22 538.13 L 528.84 539.15 L 530.46 540.08 L 532.08 540.94 L 533.70 541.72 L 535.32 542.44 L 536.94 543.10 L 538.56 543.71 L 540.18 544.26 L 541.80 544.78 L 543.42 545.25 L 545.04 545.68 L 546.66 546.09 L 548.28 546.46 L 549.90 546.80 L 551.52 547.12 L 553.14 547.42 L 554.76 547.69 L 556.38 547.95 L 558.00 548.18 L 559.62 548.40 L 561.24 548.61 L 562.86 548.80 L 564.48 548.98 L 566.10 549.15 L 567.72 549.30 L 569.34 549.45 L 570.96 549.59 L 572.58 549.72 L 574.20 549.84 L 575.82 549.95 L 577.44 550.06 L 579.06 550.16 L 580.68 550.25 L 582.30 550.34 L 583.92 550.43 L 585.54 550.50 L 587.16 550.58 L 588.78 550.65 L 590.40 550.72 L 592.02 550.78 L 593.64 550.84 L 595.26 550.90 L 596.88 550.95 L 598.50 551.00 L 600.12 551.05 L 601.74 551.10 L 603.36 551.14 L 604.98 551.19 L 606.60 551.22 L 608.22 551.26 L 609.84 551.30 L 611.46 551.33 L 613.08 551.36 L 614.70 551.39 L 616.32 551.42 L 617.94 551.45 L 619.56 551.47 L 621.18 551.50 L 622.80 551.52 L 624.42 551.54 L 626.04 551.57 L 627.66 551.58 L 629.28 551.60 L 630.90 551.62 L 632.52 551.64 L 634.14 551.65 L 635.76 551.67 L 637.38 551.68 L 639.00 551.70 L 640.62 551.71 L 642.24 551.72 L 643.86 551.74 L 645.48 551.75 L 647.10 551.76 L 648.72 551.77 L 650.34 551.78 L 651.96 551.79 L 653.58 551.80 L 655.20 551.81 L 656.82 551.82 L 658.44 551.83 L 660.06 551.84 L 661.68 551.84 L 663.30 551.85 L 664.92 551.86 L 666.54 551.87 L 668.16 551.87 L 669.78 551.88 L 671.40 551.89 L 673.02 551.89 L 674.64 551.90 L 676.26 551.90 L 677.88 551.91 L 679.50 551.91 L 681.12 551.92 L 682.74 551.92 L 684.36 551.93 L 685.98 551.93 L 687.60 551.94 L 689.22 551.94 L 690.84 551.95 L 692.46 551.95 L 694.08 551.95 L 695.70 551.96 L 697.32 551.96 L 698.94 551.96 L 700.56 551.97 L 702.18 551.97 L 703.80 551.97 L 705.42 551.98 L 707.04 551.98 L 708.66 551.98 L 710.28 551.99 L 711.90 551.99 L 713.52 551.99 L 715.14 551.99 L 716.76 552.00 L 718.38 552.00 L 720.00 552.00" fill="none" stroke="#4CAF50" stroke-width="3" stroke-linejoin="round" stroke-linecap="round" />
  <path d="M 72.00 505.24 L 73.62 504.63 L 75.24 503.97 L 76.86 503.21 L 78.48 502.40 L 80.10 501.60 L 81.72 500.82 L 83.34 500.04 L 84.96 499.28 L 86.58 498.53 L 88.20 497.80 L 89.82 497.06 L 91.44 496.32 L 93.06 495.58 L 94.68 494.83 L 96.30 494.07 L 97.92 493.31 L 99.54 492.54 L 101.16 491.77 L 102.78 490.98 L 104.40 490.19 L 106.02 489.39 L 107.64 488.58 L 109.26 487.76 L 110.88 486.94 L 112.50 486.10 L 114.12 485.25 L 115.74 484.38 L 117.36 483.51 L 118.98 482.62 L 120.60 481.73 L 122.22 480.82 L 123.84 479.89 L 125.46 478.95 L 127.08 478.00 L 128.70 477.04 L 130.32 476.06 L 131.94 475.07 L 133.56 474.07 L 135.18 473.05 L 136.80 472.02 L 138.42 470.97 L 140.04 469.91 L 141.66 468.84 L 143.28 467.75 L 144.90 466.64 L 146.52 465.52 L 148.14 464.39 L 149.76 463.23 L 151.38 462.07 L 153.00 460.89 L 154.62 459.69 L 156.24 458.48 L 157.86 457.25 L 159.48 456.01 L 161.10 454.75 L 162.72 453.47 L 164.34 452.18 L 165.96 450.87 L 167.58 449.55 L 169.20 448.21 L 170.82 446.85 L 172.44 445.47 L 174.06 444.08 L 175.68 442.67 L 177.30 441.25 L 178.92 439.81 L 180.54 438.35 L 182.16 436.87 L 183.78 435.38 L 185.40 433.87 L 187.02 432.34 L 188.64 430.80 L 190.26 429.23 L 191.88 427.65 L 193.50 426.06 L 195.12 424.44 L 196.74 422.81 L 198.36 421.16 L 199.98 419.49 L 201.60 417.80 L 203.22 416.10 L 204.84 414.98 L 206.46 413.84 L 208.08 412.67 L 209.70 411.49 L 211.32 410.30 L 212.94 409.08 L 214.56 407.86 L 216.18 406.62 L 217.80 405.37 L 219.42 404.10 L 221.04 402.83 L 222.66 401.54 L 224.28 400.25 L 225.90 398.94 L 227.52 397.62 L 229.14 396.29 L 230.76 394.95 L 232.38 393.60 L 234.00 392.24 L 235.62 390.86 L 237.24 389.48 L 238.86 388.08 L 240.48 386.68 L 242.10 385.26 L 243.72 383.83 L 245.34 382.39 L 246.96 380.94 L 248.58 379.48 L 250.20 378.00 L 251.82 376.51 L 253.44 375.01 L 255.06 373.50 L 256.68 371.98 L 258.30 370.44 L 259.92 368.89 L 261.54 367.33 L 263.16 365.75 L 264.78 364.17 L 266.40 362.58 L 268.02 360.97 L 269.64 359.35 L 271.26 357.72 L 272.88 356.08 L 274.50 354.43 L 276.12 352.77 L 277.74 351.10 L 279.36 349.42 L 280.98 347.74 L 282.60 346.05 L 284.22 344.35 L 285.84 342.65 L 287.46 340.95 L 289.08 339.23 L 290.70 337.50 L 292.32 335.77 L 293.94 334.02 L 295.56 332.27 L 297.18 330.50 L 298.80 328.73 L 300.42 326.94 L 302.04 325.15 L 303.66 323.35 L 305.28 321.54 L 306.90 319.73 L 308.52 317.92 L 310.14 316.10 L 311.76 314.28 L 313.38 312.45 L 315.00 310.62 L 316.62 308.78 L 318.24 306.94 L 319.86 305.08 L 321.48 303.22 L 323.10 301.35 L 324.72 299.47 L 326.34 297.58 L 327.96 295.68 L 329.58 293.77 L 331.20 291.85 L 332.82 289.91 L 334.44 287.97 L 336.06 286.00 L 337.68 284.03 L 339.30 282.04 L 340.92 280.03 L 342.54 278.01 L 344.16 275.97 L 345.78 273.91 L 347.40 271.83 L 349.02 269.73 L 350.64 267.60 L 352.26 265.45 L 353.88 263.28 L 355.50 261.08 L 357.12 258.85 L 358.74 256.60 L 360.36 254.31 L 361.98 252.00 L 363.60 249.66 L 365.22 247.28 L 366.84 244.88 L 368.46 242.45 L 370.08 240.00 L 371.70 237.51 L 373.32 235.00 L 374.94 232.46 L 376.56 229.89 L 378.18 227.29 L 379.80 224.66 L 381.42 222.00 L 383.04 219.31 L 384.66 216.59 L 386.28 213.87 L 387.90 211.15 L 389.52 208.43 L 391.14 205.71 L 392.76 202.99 L 394.38 200.26 L 396.00 197.53 L 397.62 194.79 L 399.24 192.05 L 400.86 189.29 L 402.48 186.51 L 404.10 183.71 L 405.72 180.89 L 407.34 178.05 L 408.96 175.19 L 410.58 172.31 L 412.20 169.42 L 413.82 166.50 L 415.44 163.57 L 417.06 160.62 L 418.68 157.68 L 420.30 154.73 L 421.92 151.77 L 423.54 148.82 L 425.16 145.87 L 426.78 142.91 L 428.40 139.96 L 430.02 137.00 L 431.64 134.05 L 433.26 131.11 L 434.88 128.18 L 436.50 125.27 L 438.12 122.35 L 439.74 119.44 L 441.36 116.52 L 442.98 113.60 L 444.60 110.67 L 446.22 107.72 L 447.84 104.77 L 449.46 101.80 L 451.08 98.83 L 452.70 95.84 L 454.32 92.84 L 455.94 89.82 L 457.56 86.79 L 459.18 83.74 L 460.80 80.68 L 462.42 77.61 L 464.04 74.52 L 465.66 71.42 L 467.28 68.31 L 468.90 65.18 L 470.52 62.04 L 472.14 58.89 L 473.76 55.72 L 475.38 52.54 L 477.00 49.34 L 478.62 48.21 L 480.24 48.12 L 481.86 48.04 L 483.48 48.00 L 485.10 48.01 L 486.72 48.08 L 488.34 48.22 L 489.96 48.44 L 491.58 49.46 L 493.20 53.24 L 494.82 57.15 L 496.44 61.24 L 498.06 65.50 L 499.68 69.89 L 501.30 74.42 L 502.92 79.10 L 504.54 83.93 L 506.16 114.39 L 507.78 160.49 L 509.40 200.34 L 511.02 234.84 L 512.64 264.65 L 514.26 290.30 L 515.88 312.28 L 517.50 331.22 L 519.12 348.07 L 520.74 363.74 L 522.36 378.25 L 523.98 391.66 L 525.60 404.27 L 527.22 415.86 L 528.84 426.46 L 530.46 436.11 L 532.08 444.90 L 533.70 452.80 L 535.32 459.92 L 536.94 466.33 L 538.56 472.12 L 540.18 477.38 L 541.80 482.14 L 543.42 486.46 L 545.04 490.40 L 546.66 493.98 L 548.28 497.27 L 549.90 500.28 L 551.52 503.04 L 553.14 505.58 L 554.76 507.92 L 556.38 510.11 L 558.00 512.16 L 559.62 514.08 L 561.24 515.88 L 562.86 517.57 L 564.48 519.16 L 566.10 520.65 L 567.72 522.06 L 569.34 523.38 L 570.96 524.63 L 572.58 525.81 L 574.20 526.92 L 575.82 527.97 L 577.44 528.96 L 579.06 529.90 L 580.68 530.79 L 582.30 531.63 L 583.92 532.44 L 585.54 533.20 L 587.16 533.93 L 588.78 534.63 L 590.40 535.29 L 592.02 535.92 L 593.64 536.52 L 595.26 537.09 L 596.88 537.63 L 598.50 538.16 L 600.12 538.66 L 601.74 539.15 L 603.36 539.65 L 604.98 540.16 L 606.60 540.66 L 608.22 541.15 L 609.84 541.63 L 611.46 542.10 L 613.08 542.55 L 614.70 542.98 L 616.32 543.40 L 617.94 543.80 L 619.56 544.18 L 621.18 544.55 L 622.80 544.93 L 624.42 545.31 L 626.04 545.68 L 627.66 546.01 L 629.28 546.32 L 630.90 546.60 L 632.52 546.86 L 634.14 547.10 L 635.76 547.33 L 637.38 547.55 L 639.00 547.75 L 640.62 547.95 L 642.24 548.14 L 643.86 548.32 L 645.48 548.49 L 647.10 548.65 L 648.72 548.81 L 650.34 548.96 L 651.96 549.11 L 653.58 549.25 L 655.20 549.38 L 656.82 549.51 L 658.44 549.63 L 660.06 549.75 L 661.68 549.86 L 663.30 549.97 L 664.92 550.08 L 666.54 550.18 L 668.16 550.27 L 669.78 550.37 L 671.40 550.45 L 673.02 550.54 L 674.64 550.62 L 676.26 550.70 L 677.88 550.77 L 679.50 550.85 L 681.12 550.92 L 682.74 550.98 L 684.36 551.05 L 685.98 551.11 L 687.60 551.17 L 689.22 551.23 L 690.84 551.28 L 692.46 551.34 L 694.08 551.39 L 695.70 551.44 L 697.32 551.48 L 698.94 551.53 L 700.56 551.58 L 702.18 551.62 L 703.80 551.66 L 705.42 551.70 L 707.04 551.74 L 708.66 551.77 L 710.28 551.81 L 711.90 551.84 L 713.52 551.88 L 715.14 551.91 L 716.76 551.94 L 718.38 551.97 L 720.00 552.00" fill="none" stroke="#F44336" stroke-width="3" stroke-linejoin="round" stroke-linecap="round" />
  <path d="M 72.00 318.31 L 73.62 314.27 L 75.24 311.64 L 76.86 309.82 L 78.48 308.47 L 80.10 307.35 L 81.72 306.40 L 83.34 305.53 L 84.96 304.73 L 86.58 303.94 L 88.20 303.18 L 89.82 302.43 L 91.44 301.67 L 93.06 300.90 L 94.68 300.12 L 96.30 299.33 L 97.92 298.52 L 99.54 297.69 L 101.16 296.84 L 102.78 295.97 L 104.40 295.09 L 106.02 294.19 L 107.64 293.27 L 109.26 292.33 L 110.88 291.37 L 112.50 290.39 L 114.12 289.33 L 115.74 288.20 L 117.36 287.03 L 118.98 285.83 L 120.60 284.61 L 122.22 283.38 L 123.84 282.14 L 125.46 280.90 L 127.08 279.64 L 128.70 278.38 L 130.32 277.12 L 131.94 275.85 L 133.56 274.57 L 135.18 273.28 L 136.80 271.98 L 138.42 270.66 L 140.04 269.32 L 141.66 267.96 L 143.28 266.59 L 144.90 265.20 L 146.52 263.80 L 148.14 262.37 L 149.76 260.93 L 151.38 259.47 L 153.00 257.99 L 154.62 256.49 L 156.24 254.97 L 157.86 253.43 L 159.48 251.87 L 161.10 250.30 L 162.72 248.70 L 164.34 247.08 L 165.96 245.45 L 167.58 243.79 L 169.20 242.12 L 170.82 240.42 L 172.44 238.70 L 174.06 236.96 L 175.68 235.21 L 177.30 233.43 L 178.92 231.63 L 180.54 229.81 L 182.16 227.97 L 183.78 226.11 L 185.40 224.23 L 187.02 222.33 L 188.64 220.40 L 190.26 218.46 L 191.88 216.50 L 193.50 214.51 L 195.12 212.51 L 196.74 210.49 L 198.36 208.44 L 199.98 206.38 L 201.60 204.32 L 203.22 202.25 L 204.84 202.12 L 206.46 201.59 L 208.08 200.88 L 209.70 200.07 L 211.32 199.21 L 212.94 198.30 L 214.56 197.37 L 216.18 196.40 L 217.80 195.41 L 219.42 194.39 L 221.04 193.35 L 222.66 192.29 L 224.28 191.21 L 225.90 190.10 L 227.52 188.98 L 229.14 187.84 L 230.76 186.68 L 232.38 185.51 L 234.00 184.31 L 235.62 183.10 L 237.24 181.87 L 238.86 180.63 L 240.48 179.37 L 242.10 178.09 L 243.72 176.80 L 245.34 175.49 L 246.96 174.17 L 248.58 172.62 L 250.20 170.99 L 251.82 169.34 L 253.44 167.71 L 255.06 166.09 L 256.68 164.48 L 258.30 162.90 L 259.92 161.33 L 261.54 159.77 L 263.16 158.22 L 264.78 156.69 L 266.40 155.17 L 268.02 153.66 L 269.64 152.16 L 271.26 150.67 L 272.88 149.20 L 274.50 147.73 L 276.12 146.27 L 277.74 144.83 L 279.36 143.39 L 280.98 141.99 L 282.60 140.60 L 284.22 139.71 L 285.84 138.98 L 287.46 137.83 L 289.08 136.52 L 290.70 135.15 L 292.32 133.77 L 293.94 132.39 L 295.56 131.01 L 297.18 129.63 L 298.80 128.27 L 300.42 126.91 L 302.04 125.56 L 303.66 124.21 L 305.28 122.89 L 306.90 121.63 L 308.52 120.40 L 310.14 119.19 L 311.76 118.00 L 313.38 116.81 L 315.00 115.63 L 316.62 114.45 L 318.24 113.13 L 319.86 111.80 L 321.48 110.47 L 323.10 109.15 L 324.72 107.85 L 326.34 106.56 L 327.96 105.29 L 329.58 104.02 L 331.20 102.77 L 332.82 101.52 L 334.44 100.27 L 336.06 99.02 L 337.68 97.78 L 339.30 96.54 L 340.92 95.30 L 342.54 94.06 L 344.16 92.81 L 345.78 91.57 L 347.40 90.31 L 349.02 89.04 L 350.64 87.76 L 352.26 86.47 L 353.88 85.16 L 355.50 83.83 L 357.12 82.50 L 358.74 81.14 L 360.36 79.76 L 361.98 78.37 L 363.60 76.95 L 365.22 75.52 L 366.84 74.06 L 368.46 72.60 L 370.08 70.98 L 371.70 69.29 L 373.32 67.62 L 374.94 65.96 L 376.56 64.31 L 378.18 62.70 L 379.80 61.17 L 381.42 59.63 L 383.04 58.50 L 384.66 58.84 L 386.28 58.69 L 387.90 58.34 L 389.52 57.90 L 391.14 57.47 L 392.76 57.05 L 394.38 56.64 L 396.00 56.25 L 397.62 55.88 L 399.24 55.52 L 400.86 55.16 L 402.48 54.79 L 404.10 54.41 L 405.72 54.03 L 407.34 53.64 L 408.96 53.24 L 410.58 52.83 L 412.20 52.29 L 413.82 51.72 L 415.44 51.14 L 417.06 50.60 L 418.68 50.10 L 420.30 49.66 L 421.92 49.26 L 423.54 48.92 L 425.16 48.62 L 426.78 48.37 L 428.40 48.16 L 430.02 48.00 L 431.64 48.07 L 433.26 48.83 L 434.88 49.49 L 436.50 50.11 L 438.12 50.73 L 439.74 51.35 L 441.36 51.99 L 442.98 52.66 L 444.60 53.35 L 446.22 54.06 L 447.84 54.78 L 449.46 55.52 L 451.08 56.28 L 452.70 57.03 L 454.32 57.77 L 455.94 58.54 L 457.56 59.35 L 459.18 60.21 L 460.80 61.10 L 462.42 62.04 L 464.04 63.01 L 465.66 64.02 L 467.28 65.07 L 468.90 66.07 L 470.52 67.05 L 472.14 68.04 L 473.76 69.06 L 475.38 70.10 L 477.00 71.18 L 478.62 72.29 L 480.24 73.62 L 481.86 75.19 L 483.48 76.92 L 485.10 78.77 L 486.72 80.73 L 488.34 82.78 L 489.96 85.24 L 491.58 88.36 L 493.20 92.09 L 494.82 96.54 L 496.44 101.12 L 498.06 103.19 L 499.68 106.62 L 501.30 111.21 L 502.92 116.72 L 504.54 122.97 L 506.16 129.79 L 507.78 139.67 L 509.40 153.18 L 511.02 168.59 L 512.64 184.88 L 514.26 201.35 L 515.88 217.53 L 517.50 233.19 L 519.12 248.50 L 520.74 264.05 L 522.36 281.33 L 523.98 299.38 L 525.60 316.41 L 527.22 332.54 L 528.84 347.75 L 530.46 363.00 L 532.08 384.73 L 533.70 403.30 L 535.32 419.61 L 536.94 434.10 L 538.56 447.09 L 540.18 459.24 L 541.80 470.36 L 543.42 480.09 L 545.04 488.69 L 546.66 496.32 L 548.28 503.10 L 549.90 509.40 L 551.52 515.85 L 553.14 521.46 L 554.76 526.37 L 556.38 530.72 L 558.00 534.56 L 559.62 537.95 L 561.24 540.95 L 562.86 543.56 L 564.48 545.80 L 566.10 547.68 L 567.72 549.20 L 569.34 550.38 L 570.96 551.24 L 572.58 551.77 L 574.20 552.00 L 575.82 551.93 L 577.44 551.56 L 579.06 550.91 L 580.68 549.97 L 582.30 548.74 L 583.92 547.24 L 585.54 545.45 L 587.16 543.37 L 588.78 541.02 L 590.40 538.37 L 592.02 535.42 L 593.64 532.32 L 595.26 529.14 L 596.88 525.86 L 598.50 522.48 L 600.12 519.02 L 601.74 515.50 L 603.36 511.89 L 604.98 508.21 L 606.60 504.46 L 608.22 500.66 L 609.84 496.78 L 611.46 492.77 L 613.08 488.68 L 614.70 484.53 L 616.32 480.34 L 617.94 476.12 L 619.56 471.87 L 621.18 467.60 L 622.80 463.32 L 624.42 459.04 L 626.04 454.76 L 627.66 450.49 L 629.28 446.22 L 630.90 441.95 L 632.52 437.69 L 634.14 433.44 L 635.76 429.21 L 637.38 425.01 L 639.00 420.85 L 640.62 416.73 L 642.24 412.67 L 643.86 408.66 L 645.48 404.72 L 647.10 400.84 L 648.72 397.01 L 650.34 393.25 L 651.96 389.55 L 653.58 385.92 L 655.20 382.36 L 656.82 378.87 L 658.44 375.46 L 660.06 372.13 L 661.68 368.87 L 663.30 365.70 L 664.92 362.61 L 666.54 359.58 L 668.16 356.60 L 669.78 353.66 L 671.40 350.79 L 673.02 348.01 L 674.64 345.32 L 676.26 342.72 L 677.88 340.22 L 679.50 337.81 L 681.12 335.49 L 682.74 333.25 L 684.36 331.10 L 685.98 329.03 L 687.60 327.04 L 689.22 325.12 L 690.84 323.29 L 692.46 321.54 L 694.08 319.87 L 695.70 318.27 L 697.32 316.74 L 698.94 315.28 L 700.56 313.88 L 702.18 312.54 L 703.80 311.27 L 705.42 310.05 L 707.04 308.89 L 708.66 307.78 L 710.28 306.72 L 711.90 305.70 L 713.52 304.72 L 715.14 303.78 L 716.76 302.86 L 718.38 301.96 L 720.00 301.09" fill="none" stroke="#FF9800" stroke-width="3" stroke-linejoin="round" stroke-linecap="round" />
  <path d="M 72.00 547.91 L 73.62 548.95 L 75.24 549.73 L 76.86 550.33 L 78.48 550.79 L 80.10 551.14 L 81.72 551.40 L 83.34 551.59 L 84.96 551.74 L 86.58 551.85 L 88.20 551.92 L 89.82 551.97 L 91.44 551.99 L 93.06 552.00 L 94.68 551.99 L 96.30 551.97 L 97.92 551.94 L 99.54 551.90 L 101.16 551.85 L 102.78 551.80 L 104.40 551.73 L 106.02 551.66 L 107.64 551.59 L 109.26 551.51 L 110.88 551.42 L 112.50 551.33 L 114.12 551.23 L 115.74 551.13 L 117.36 551.03 L 118.98 550.92 L 120.60 550.81 L 122.22 550.70 L 123.84 550.59 L 125.46 550.47 L 127.08 550.35 L 128.70 550.23 L 130.32 550.11 L 131.94 549.99 L 133.56 549.86 L 135.18 549.74 L 136.80 549.61 L 138.42 549.48 L 140.04 549.35 L 141.66 549.22 L 143.28 549.09 L 144.90 548.96 L 146.52 548.82 L 148.14 548.69 L 149.76 548.55 L 151.38 548.42 L 153.00 548.28 L 154.62 548.15 L 156.24 548.01 L 157.86 547.87 L 159.48 547.73 L 161.10 547.59 L 162.72 547.45 L 164.34 547.31 L 165.96 547.17 L 167.58 547.02 L 169.20 546.88 L 170.82 546.74 L 172.44 546.59 L 174.06 546.44 L 175.68 546.29 L 177.30 546.14 L 178.92 545.99 L 180.54 545.84 L 182.16 545.69 L 183.78 545.53 L 185.40 545.37 L 187.02 545.21 L 188.64 545.05 L 190.26 544.89 L 191.88 544.73 L 193.50 544.56 L 195.12 544.39 L 196.74 544.22 L 198.36 544.05 L 199.98 543.88 L 201.60 543.70 L 203.22 543.52 L 204.84 543.34 L 206.46 543.15 L 208.08 542.97 L 209.70 542.78 L 211.32 542.59 L 212.94 542.39 L 214.56 542.19 L 216.18 541.99 L 217.80 541.79 L 219.42 541.58 L 221.04 541.37 L 222.66 541.16 L 224.28 540.94 L 225.90 540.72 L 227.52 540.50 L 229.14 540.27 L 230.76 540.04 L 232.38 539.80 L 234.00 539.56 L 235.62 539.32 L 237.24 539.07 L 238.86 538.82 L 240.48 538.56 L 242.10 538.30 L 243.72 538.04 L 245.34 537.77 L 246.96 537.49 L 248.58 537.21 L 250.20 536.93 L 251.82 536.64 L 253.44 536.35 L 255.06 536.05 L 256.68 535.74 L 258.30 535.44 L 259.92 535.12 L 261.54 534.80 L 263.16 534.48 L 264.78 534.15 L 266.40 533.81 L 268.02 533.47 L 269.64 533.13 L 271.26 532.77 L 272.88 532.42 L 274.50 532.05 L 276.12 531.68 L 277.74 531.30 L 279.36 530.92 L 280.98 530.53 L 282.60 530.13 L 284.22 529.73 L 285.84 529.32 L 287.46 528.91 L 289.08 528.49 L 290.70 528.06 L 292.32 527.62 L 293.94 527.18 L 295.56 526.73 L 297.18 526.27 L 298.80 525.80 L 300.42 525.33 L 302.04 524.85 L 303.66 524.36 L 305.28 523.85 L 306.90 523.34 L 308.52 522.81 L 310.14 522.27 L 311.76 521.72 L 313.38 521.16 L 315.00 520.59 L 316.62 520.01 L 318.24 519.41 L 319.86 518.81 L 321.48 518.19 L 323.10 517.55 L 324.72 516.91 L 326.34 516.25 L 327.96 515.57 L 329.58 514.88 L 331.20 514.17 L 332.82 513.45 L 334.44 512.71 L 336.06 511.95 L 337.68 511.17 L 339.30 510.38 L 340.92 509.57 L 342.54 508.73 L 344.16 507.88 L 345.78 507.01 L 347.40 506.11 L 349.02 505.19 L 350.64 504.26 L 352.26 503.30 L 353.88 502.31 L 355.50 501.31 L 357.12 500.28 L 358.74 499.22 L 360.36 498.15 L 361.98 497.04 L 363.60 495.92 L 365.22 494.76 L 366.84 493.59 L 368.46 492.38 L 370.08 491.15 L 371.70 489.89 L 373.32 488.61 L 374.94 487.29 L 376.56 485.95 L 378.18 484.58 L 379.80 483.19 L 381.42 481.76 L 383.04 480.30 L 384.66 478.82 L 386.28 477.30 L 387.90 475.75 L 389.52 474.18 L 391.14 472.56 L 392.76 470.92 L 394.38 469.25 L 396.00 467.54 L 397.62 465.79 L 399.24 464.01 L 400.86 462.20 L 402.48 460.34 L 404.10 458.45 L 405.72 456.52 L 407.34 454.55 L 408.96 452.54 L 410.58 450.48 L 412.20 448.38 L 413.82 446.23 L 415.44 444.04 L 417.06 441.79 L 418.68 439.50 L 420.30 437.15 L 421.92 434.75 L 423.54 432.30 L 425.16 429.79 L 426.78 427.23 L 428.40 424.60 L 430.02 421.92 L 431.64 419.17 L 433.26 416.37 L 434.88 413.49 L 436.50 410.56 L 438.12 407.55 L 439.74 404.48 L 441.36 401.33 L 442.98 398.12 L 444.60 394.83 L 446.22 391.47 L 447.84 388.03 L 449.46 384.52 L 451.08 380.93 L 452.70 377.25 L 454.32 373.50 L 455.94 369.66 L 457.56 365.73 L 459.18 361.72 L 460.80 357.61 L 462.42 353.42 L 464.04 349.13 L 465.66 344.74 L 467.28 340.26 L 468.90 335.68 L 470.52 330.99 L 472.14 326.20 L 473.76 321.30 L 475.38 316.30 L 477.00 311.18 L 478.62 305.95 L 480.24 300.60 L 481.86 295.13 L 483.48 289.55 L 485.10 283.84 L 486.72 278.00 L 488.34 272.04 L 489.96 265.94 L 491.58 259.72 L 493.20 253.37 L 494.82 246.88 L 496.44 240.27 L 498.06 233.53 L 499.68 226.66 L 501.30 219.66 L 502.92 212.55 L 504.54 205.32 L 506.16 197.98 L 507.78 190.53 L 509.40 182.98 L 511.02 175.33 L 512.64 167.59 L 514.26 159.77 L 515.88 151.88 L 517.50 143.96 L 519.12 136.02 L 520.74 128.12 L 522.36 120.28 L 523.98 112.57 L 525.60 105.04 L 527.22 97.74 L 528.84 90.73 L 530.46 84.07 L 532.08 77.82 L 533.70 72.03 L 535.32 66.75 L 536.94 62.04 L 538.56 57.95 L 540.18 54.51 L 541.80 51.77 L 543.42 49.75 L 545.04 48.49 L 546.66 48.00 L 548.28 48.30 L 549.90 49.41 L 551.52 51.32 L 553.14 54.03 L 554.76 57.55 L 556.38 61.85 L 558.00 66.92 L 559.62 72.73 L 561.24 79.27 L 562.86 86.49 L 564.48 94.37 L 566.10 102.85 L 567.72 111.91 L 569.34 121.48 L 570.96 131.54 L 572.58 142.01 L 574.20 152.86 L 575.82 164.03 L 577.44 175.46 L 579.06 187.10 L 580.68 198.91 L 582.30 210.81 L 583.92 222.77 L 585.54 234.74 L 587.16 246.66 L 588.78 258.49 L 590.40 270.20 L 592.02 281.74 L 593.64 293.07 L 595.26 304.17 L 596.88 315.01 L 598.50 325.57 L 600.12 335.82 L 601.74 345.75 L 603.36 355.34 L 604.98 364.59 L 606.60 373.50 L 608.22 382.05 L 609.84 390.25 L 611.46 398.10 L 613.08 405.61 L 614.70 412.79 L 616.32 419.63 L 617.94 426.15 L 619.56 432.37 L 621.18 438.28 L 622.80 443.91 L 624.42 449.27 L 626.04 454.36 L 627.66 459.20 L 629.28 463.80 L 630.90 468.17 L 632.52 472.32 L 634.14 476.27 L 635.76 480.02 L 637.38 483.59 L 639.00 486.98 L 640.62 490.20 L 642.24 493.27 L 643.86 496.18 L 645.48 498.95 L 647.10 501.59 L 648.72 504.10 L 650.34 506.49 L 651.96 508.76 L 653.58 510.92 L 655.20 512.98 L 656.82 514.94 L 658.44 516.80 L 660.06 518.57 L 661.68 520.26 L 663.30 521.87 L 664.92 523.40 L 666.54 524.86 L 668.16 526.25 L 669.78 527.56 L 671.40 528.80 L 673.02 529.97 L 674.64 531.08 L 676.26 532.14 L 677.88 533.15 L 679.50 534.10 L 681.12 535.02 L 682.74 535.89 L 684.36 536.72 L 685.98 537.51 L 687.60 538.26 L 689.22 538.98 L 690.84 539.66 L 692.46 540.32 L 694.08 540.94 L 695.70 541.53 L 697.32 542.10 L 698.94 542.64 L 700.56 543.15 L 702.18 543.64 L 703.80 544.11 L 705.42 544.55 L 707.04 544.98 L 708.66 545.38 L 710.28 545.76 L 711.90 546.13 L 713.52 546.47 L 715.14 546.80 L 716.76 547.12 L 718.38 547.42 L 720.00 547.70" fill="none" stroke="#9C27B0" stroke-width="3" stroke-linejoin="round" stroke-linecap="round" />
  <rect x="740" y="36" width="14" height="14" fill="#2196F3" rx="3" />
  <text x="762" y="48" font-size="14" fill="#1f2937">Population</text>
  <rect x="740" y="60" width="14" height="14" fill="#4CAF50" rx="3" />
  <text x="762" y="72" font-size="14" fill="#1f2937">Resources</text>
  <rect x="740" y="84" width="14" height="14" fill="#F44336" rx="3" />
  <text x="762" y="96" font-size="14" fill="#1f2937">Industrial output/cap</text>
  <rect x="740" y="108" width="14" height="14" fill="#FF9800" rx="3" />
  <text x="762" y="120" font-size="14" fill="#1f2937">Food/capita</text>
  <rect x="740" y="132" width="14" height="14" fill="#9C27B0" rx="3" />
  <text x="762" y="144" font-size="14" fill="#1f2937">Pollution index</text>
  <text x="500" y="596" text-anchor="middle" font-size="13" fill="#6b7280">Year</text>
  <text x="20" y="300" text-anchor="middle" font-size="13" fill="#6b7280" transform="rotate(-90 20 300)">Normalized value</text>
</svg>